<?xml version="1.0" encoding="UTF-8"?>
<svg version="1.1" xmlns="http://www.w3.org/2000/svg" width="144" height="63">
<path d="M0 0 C47.52 0 95.04 0 144 0 C144 20.79 144 41.58 144 63 C96.48 63 48.96 63 0 63 C0 42.21 0 21.42 0 0 Z " fill="#FCFDFE" transform="translate(0,0)"/>
<path d="M0 0 C3.96 0 7.92 0 12 0 C14.71844878 8.15534634 14.12166424 17.48730534 14 26 C18.56538056 26.35820413 22.582601 26.2812258 27 25 C30.44512041 21.49277871 32.25598138 17.4548304 34.25 13 C35.07951172 11.30230469 35.07951172 11.30230469 35.92578125 9.5703125 C36.94019666 7.49163326 37.93372303 5.40253929 38.89941406 3.30078125 C40 1 40 1 41 0 C43.01964199 -0.07244053 45.04167124 -0.08377188 47.0625 -0.0625 C48.71958984 -0.04896484 48.71958984 -0.04896484 50.41015625 -0.03515625 C51.26480469 -0.02355469 52.11945313 -0.01195312 53 0 C52.42415568 2.38564077 51.77772405 4.66682784 51 7 C52.98 5.68 54.96 4.36 57 3 C59.64 5.31 62.28 7.62 65 10 C63.05651624 13.88696752 60.82375591 17.23453924 58.33984375 20.78125 C56.74954475 23.16915997 56.74954475 23.16915997 56 27 C61.94 27 67.88 27 74 27 C74.226875 25.68 74.45375 24.36 74.6875 23 C76.22786647 16.24363395 79.02504168 11.0599306 84.75 7 C89.16835435 4.54997268 93.05119822 4.0742626 98 5 C103.91847979 6.90540986 107.48995754 9.9414094 111 15 C112.9892217 18.87898232 113.49300922 22.6905784 114 27 C115.65 27.33 117.3 27.66 119 28 C119 28.99 119 29.98 119 31 C117.35 31.33 115.7 31.66 114 32 C113.87044922 33.051875 113.87044922 33.051875 113.73828125 34.125 C112.823183 40.30401202 111.67765481 46.49032727 107 51 C102.86356447 51 102.30197567 50.84767359 99.25 48.5 C98.63640625 48.0359375 98.0228125 47.571875 97.390625 47.09375 C96.93171875 46.7328125 96.4728125 46.371875 96 46 C97.16377866 43.67244268 98.34017367 41.3604735 99.5625 39.0625 C101.2505218 35.78359566 101.2505218 35.78359566 102 31 C96.72 31 91.44 31 86 31 C85.62875 33.2275 85.62875 33.2275 85.25 35.5 C83.98345777 41.75299871 82.18734486 46.8687409 77.5625 51.375 C71.47855303 55.23311271 66.07146008 55.66652937 59 55 C52.51238328 52.71732004 48.0545552 48.1091104 45 42 C43.84245279 38.00120054 43.91874749 34.14387789 44 30 C41.69 30 39.38 30 37 30 C36.599021 31.31121826 36.599021 31.31121826 36.18994141 32.64892578 C35.03893206 35.89036081 33.66829747 38.63767696 31.9609375 41.6171875 C31.38085938 42.63554688 30.80078125 43.65390625 30.203125 44.703125 C29.59984375 45.74984375 28.9965625 46.7965625 28.375 47.875 C27.45847656 49.47988281 27.45847656 49.47988281 26.5234375 51.1171875 C25.02039016 53.74752035 23.51083225 56.37413098 22 59 C17.05 59 12.1 59 7 59 C6.49620985 55.10462259 5.99682435 51.20876661 5.5 47.3125 C5.28537109 45.65831055 5.28537109 45.65831055 5.06640625 43.97070312 C4.86337891 42.3706543 4.86337891 42.3706543 4.65625 40.73828125 C4.53056641 39.75899658 4.40488281 38.77971191 4.27539062 37.77075195 C4 35 4 35 4 30 C-0.29 30 -4.58 30 -9 30 C-9 28.68 -9 27.36 -9 26 C-5.04 26 -1.08 26 3 26 C2.01 17.42 1.02 8.84 0 0 Z " fill="#6FB5EE" transform="translate(21,4)"/>
<path d="M0 0 C3.96 0 7.92 0 12 0 C14.71844878 8.15534634 14.12166424 17.48730534 14 26 C18.56538056 26.35820413 22.582601 26.2812258 27 25 C30.44512041 21.49277871 32.25598138 17.4548304 34.25 13 C35.07951172 11.30230469 35.07951172 11.30230469 35.92578125 9.5703125 C36.94019666 7.49163326 37.93372303 5.40253929 38.89941406 3.30078125 C40 1 40 1 41 0 C43.01964199 -0.07244053 45.04167124 -0.08377188 47.0625 -0.0625 C48.71958984 -0.04896484 48.71958984 -0.04896484 50.41015625 -0.03515625 C51.26480469 -0.02355469 52.11945313 -0.01195312 53 0 C52.34579395 2.84021163 51.48358942 5.48059226 50.40625 8.1875 C50.09816406 8.96867188 49.79007813 9.74984375 49.47265625 10.5546875 C48.5 13 48.5 13 47.52734375 15.4453125 C47.21925781 16.22648437 46.91117188 17.00765625 46.59375 17.8125 C46.31208984 18.52019531 46.03042969 19.22789063 45.74023438 19.95703125 C45.01678093 21.95368639 44.47636669 23.93187144 44 26 C42.35 26 40.7 26 39 26 C38.73646729 26.86133545 38.47293457 27.7226709 38.20141602 28.61010742 C36.98753933 32.0351588 35.50726159 35.04535836 33.77734375 38.23828125 C32.84631836 39.96208008 32.84631836 39.96208008 31.89648438 41.72070312 C31.57510498 42.30988525 31.25372559 42.89906738 30.92260742 43.50610352 C29.93216711 45.32227894 28.94893092 47.14221225 27.96679688 48.96289062 C23.14959206 57.85040794 23.14959206 57.85040794 22 59 C19.46950598 59.07313567 16.96695163 59.09247527 14.4375 59.0625 C13.72658203 59.05798828 13.01566406 59.05347656 12.28320312 59.04882812 C10.52209987 59.03700864 8.76103964 59.01907263 7 59 C6.49491028 55.10480894 5.99682267 51.20875343 5.5 47.3125 C5.28537109 45.65831055 5.28537109 45.65831055 5.06640625 43.97070312 C4.86337891 42.3706543 4.86337891 42.3706543 4.65625 40.73828125 C4.53056641 39.75899658 4.40488281 38.77971191 4.27539062 37.77075195 C4 35 4 35 4 30 C-0.29 30 -4.58 30 -9 30 C-9 28.68 -9 27.36 -9 26 C-5.04 26 -1.08 26 3 26 C2.01 17.42 1.02 8.84 0 0 Z " fill="#5EE1E6" transform="translate(21,4)"/>
<path d="M0 0 C3.96 0 7.92 0 12 0 C12.45572917 2.01822917 12.91145833 4.03645833 13.3671875 6.0546875 C13.90474428 8.20719964 13.90474428 8.20719964 16 10 C18.92976941 10.27902566 21.15553889 10.47310339 24 10 C26.91588763 7.37570114 27.49302557 4.76743607 29 1 C33.29 1 37.58 1 42 1 C40.70202835 8.78782989 39.37664076 15.70993977 33.5625 21.375 C27.47855303 25.23311271 22.07146008 25.66652937 15 25 C8.51238328 22.71732004 4.0545552 18.1091104 1 12 C-0.15754721 8.00120054 -0.08125251 4.14387789 0 0 Z " fill="#8E56FE" transform="translate(65,34)"/>
<path d="M0 0 C5.7814327 2.57556306 9.13443246 6.15535224 12.140625 11.73828125 C13.01179909 14.98538466 12.95931715 17.95538142 12.828125 21.30078125 C9.198125 21.30078125 5.568125 21.30078125 1.828125 21.30078125 C0.343125 17.83578125 0.343125 17.83578125 -1.171875 14.30078125 C-5.19217798 14.03229098 -5.19217798 14.03229098 -9.171875 14.30078125 C-11.57259946 16.54662026 -12.12941018 18.17338678 -13.171875 21.30078125 C-17.461875 21.30078125 -21.751875 21.30078125 -26.171875 21.30078125 C-24.74673164 13.00903806 -22.5225462 6.336317 -15.421875 1.30078125 C-10.29514736 -1.54204705 -5.5549119 -1.78836192 0 0 Z " fill="#8F56FE" transform="translate(121.171875,9.69921875)"/>
<path d="M0 0 C1.34444159 0.90029571 2.67531438 1.82088022 4 2.75 C5.11375 3.51570312 5.11375 3.51570312 6.25 4.296875 C7.11625 5.13992188 7.11625 5.13992188 8 6 C8 10.34662696 7.74191122 10.75724452 5.125 13.875 C2.16385571 17.40834608 1.59857379 19.20427863 0 24 C-5.28 24 -10.56 24 -16 24 C-14.68 23.67 -13.36 23.34 -12 23 C-11.95875 22.0925 -11.9175 21.185 -11.875 20.25 C-10.90061953 13.44325646 -7.45991633 6.15064939 -2.296875 1.63671875 C-1.53890625 1.09660156 -0.7809375 0.55648438 0 0 Z " fill="#8E58FE" transform="translate(77,7)"/>
<path d="M0 0 C3.63 0 7.26 0 11 0 C11.59491613 7.37696005 10.38439927 12.8964547 6 19 C4.02 19.99 4.02 19.99 2 21 C-0.64 19.02 -3.28 17.04 -6 15 C-4.8374328 12.6748656 -3.65829616 10.35759678 -2.4375 8.0625 C-0.7494782 4.78359566 -0.7494782 4.78359566 0 0 Z " fill="#8D57FE" transform="translate(123,35)"/>
<path d="M0 0 C5.61 0 11.22 0 17 0 C14.55681818 8.55113636 14.55681818 8.55113636 12 10 C8.90711442 10.39274738 6.95310828 10.63577985 4 10 C1.5 7.8125 1.5 7.8125 0 5 C0 3.35 0 1.7 0 0 Z " fill="#FDFCFF" transform="translate(77,35)"/>
<path d="M0 0 C2.45321644 2.83653151 3 4.25123496 3 8 C-1.95 8 -6.9 8 -12 8 C-11 3 -11 3 -9.9375 1.1875 C-6.7914801 -0.74070575 -3.56816675 -0.8102712 0 0 Z " fill="#FBF9FF" transform="translate(120,23)"/>
<path d="M0 0 C3.3 0 6.6 0 10 0 C7.69 4.62 5.38 9.24 3 14 C2.34 14 1.68 14 1 14 C0.67 9.38 0.34 4.76 0 0 Z " fill="#F3FCFD" transform="translate(36,34)"/>
<path d="M0 0 C3.96 0 7.92 0 12 0 C12 1.32 12 2.64 12 4 C8.04 4 4.08 4 0 4 C0 2.68 0 1.36 0 0 Z " fill="#9569FD" transform="translate(12,30)"/>
<path d="M0 0 C3.96 0 7.92 0 12 0 C11.34 1.32 10.68 2.64 10 4 C6.7 4 3.4 4 0 4 C0 2.68 0 1.36 0 0 Z " fill="#8175F9" transform="translate(36,30)"/>
<path d="M0 0 C1.40907283 2.81814566 0.50872691 4.17277204 -0.4375 7.125 C-0.72496094 8.03507812 -1.01242188 8.94515625 -1.30859375 9.8828125 C-1.65083984 10.93082031 -1.65083984 10.93082031 -2 12 C-3.32 11.67 -4.64 11.34 -6 11 C-4.02 7.37 -2.04 3.74 0 0 Z " fill="#EFF6FD" transform="translate(67,18)"/>
</svg>
